<svg xmlns="http://w3.org/2000/svg" viewBox="0 0 595.51 594.7"><path d="M153.86,373.48,117,336.59c-4.68-4.69-20.11,3.09-24.8,7.76-28.42,28.42,1,76.06,39,62.9l1.07-.38a37.53,37.53,0,0,0,14-8.88c4.66-4.63,12.28-19.77,7.64-24.43A.6.6,0,0,1,153.86,373.48Z" fill="none"/><path d="M232.27,221l.11.11L269.28,258a12.09,12.09,0,0,0,17.11-.11h0L398.84,145.42c28.92-28.91-.4-76.71-38.82-63.11l-1.09.4a39,39,0,0,0-14.17,9.08L232.53,204A12,12,0,0,0,232.27,221Z" fill="none"/><path d="M441.76,221.07,478.66,258c4.68,4.7,20-3.11,24.73-7.79l2-2.14c25-28.59-4-73.58-41-60.76l-1.08.38c-5.26,1.9-17.59,12.56-21.55,16.51a11.9,11.9,0,0,0-.07,16.82Z" fill="none"/><path d="M188.63,132.07c1.89,5.27,12.51,17.6,16.46,21.55a11.91,11.91,0,0,0,16.84.07l.07-.07,36.89-36.9a12,12,0,0,0,0-17L251.15,92c-28.41-28.46-76.05,1-62.9,39Z" fill="none"/><path d="M505.39,248.06h0C505.87,247.54,506.08,247.31,505.39,248.06Z" fill="none"/><path d="M505.38,248.06l-2,2.14C504.09,249.5,504.75,248.78,505.38,248.06Z" fill="none"/><path d="M512.71,358.63a38.92,38.92,0,0,0-9.08-14.17L391.43,232.23a12,12,0,0,0-17-.23.6.6,0,0,1-.08.08L337.49,269a12.11,12.11,0,0,0,.1,17.12h0L450,398.54c28.91,28.92,76.71-.4,63.1-38.82C513,359.36,512.85,359,512.71,358.63Z" fill="none"/><path d="M407.75,463a37.73,37.73,0,0,0-8.88-14c-4.62-4.67-19.75-12.26-24.41-7.64l-.1.09-36.89,36.9c-4.69,4.68,3.08,20,7.76,24.72,28.42,28.46,76.06-1,62.9-39C408,463.74,407.88,463.39,407.75,463Z" fill="none"/><path d="M363.32,373.57l-.09-.09-36.9-36.89a12.11,12.11,0,0,0-17.12.12L196.78,449.13c-28.92,28.92.39,76.72,38.82,63.11l1.09-.39a39.13,39.13,0,0,0,14.17-9.08L363.09,390.54A12,12,0,0,0,363.32,373.57Z" fill="none"/><path d="M222,363l0,0,36.89-36.9a12.11,12.11,0,0,0-.12-17.12L146.36,196.54c-28.92-28.92-76.72.4-63.11,38.82l.39,1.09a39,39,0,0,0,9.08,14.17L205,362.85A12,12,0,0,0,222,363Z" fill="none"/><path d="M505.38,248.06h0l-2,2.14Z" fill="#4637b9"/><path d="M572.55,343c30.91-32.52,30.47-59.42-.48-91.82a15.21,15.21,0,0,1-3.18-16c16.2-41.78,6.24-66.85-34.7-85A15.29,15.29,0,0,1,525,136.48c-1-44.32-21.13-65-65.5-66.1a15.24,15.24,0,0,1-13.57-9C428,20.86,401.14,10.08,359.82,26.16A15.3,15.3,0,0,1,343.71,23C311.22-7.93,284.35-7.53,252,23.37a15.34,15.34,0,0,1-16.11,3.25c-41.77-16.21-66.83-6.26-85,34.7a15.32,15.32,0,0,1-13.64,9.15c-44.31,1-65,21.12-66.1,65.43A15.29,15.29,0,0,1,62,149.51c-41.07,18.1-50.67,45.3-35,86.86A15.26,15.26,0,0,1,23.79,252C10.8,266.21,0,280.85,0,297.36s11,31.37,24.18,45.77a15.21,15.21,0,0,1,3.11,15.52c-15.39,42-7.13,67.6,34.6,85.91a15.27,15.27,0,0,1,9.2,13.65c1,44.4,21.11,65,65.53,66a15.25,15.25,0,0,1,13.56,9.06c18,40.65,44.8,51.32,86.14,35.26a15.31,15.31,0,0,1,16.11,3.23c32.48,30.88,59.48,30.45,91.81-.49a15.24,15.24,0,0,1,16-3.19c41.72,16.2,66.88,6.21,85-34.7a15.31,15.31,0,0,1,13.64-9.16c44.4-1,65-21.09,66.08-65.51A15.21,15.21,0,0,1,534,445.14c40.65-18,51.31-44.79,35.25-86.14A15.32,15.32,0,0,1,572.55,343ZM441.76,204.19c4-3.95,16.29-14.61,21.55-16.51l1.08-.38c37-12.82,66,32.17,41,60.76.69-.75.48-.52,0,0-.63.72-1.29,1.44-2,2.14-4.69,4.68-20.05,12.49-24.73,7.79l-36.9-36.92-.07-.06A11.9,11.9,0,0,1,441.76,204.19Zm-97-112.4a39,39,0,0,1,14.17-9.08l1.09-.4c38.42-13.6,67.74,34.2,38.82,63.11L286.4,257.87h0a12.09,12.09,0,0,1-17.11.11l-36.9-36.92-.11-.11a12,12,0,0,1,.26-17Zm-93.61.2,7.77,7.76a12,12,0,0,1,0,17L222,153.62l-.07.07a11.91,11.91,0,0,1-16.84-.07c-4-4-14.57-16.28-16.46-21.55l-.38-1.08C175.1,93,222.74,63.53,251.15,92ZM146.3,398a37.53,37.53,0,0,1-14,8.88l-1.07.38c-38,13.16-67.45-34.48-39-62.9,4.69-4.67,20.12-12.45,24.8-7.76l36.86,36.89a.6.6,0,0,0,.08.08C158.58,378.22,151,393.36,146.3,398ZM92.72,250.62a39,39,0,0,1-9.08-14.17l-.39-1.09c-13.61-38.42,34.19-67.74,63.11-38.82L258.77,309a12.11,12.11,0,0,1,.12,17.12L222,363l0,0a12,12,0,0,1-17-.17ZM250.86,502.77a39.13,39.13,0,0,1-14.17,9.08l-1.09.39c-38.43,13.61-67.74-34.19-38.82-63.11L309.21,336.71a12.11,12.11,0,0,1,17.12-.12l36.9,36.89.09.09a12,12,0,0,1-.23,17Zm94.37.32c-4.68-4.69-12.45-20-7.76-24.72l36.89-36.9.1-.09c4.66-4.62,19.79,3,24.41,7.64a37.73,37.73,0,0,1,8.88,14c.13.37.26.72.38,1.08C421.29,502.08,373.65,531.55,345.23,503.09ZM450,398.54,337.6,286.11h0a12.11,12.11,0,0,1-.1-17.12l36.89-36.91a.6.6,0,0,0,.08-.08,12,12,0,0,1,17,.23l112.2,112.23a38.92,38.92,0,0,1,9.08,14.17c.14.36.27.73.39,1.09C526.71,398.14,478.91,427.46,450,398.54Z" fill="#2f257b"/></svg>