<?xml version="1.0" encoding="UTF-8"?>
<svg version="1.1" xmlns="http://www.w3.org/2000/svg" width="200" height="200">
<path d="M0 0 C0.66 0 1.32 0 2 0 C2.185625 1.0725 2.37125 2.145 2.5625 3.25 C6.74495124 19.17119771 20.37583683 30.47088712 32.48046875 40.703125 C34.42810081 42.36537139 36.22746837 44.15361289 38 46 C38.66 44.35 39.32 42.7 40 41 C40.66 41 41.32 41 42 41 C42.25394531 41.54269531 42.50789063 42.08539063 42.76953125 42.64453125 C43.11371094 43.35996094 43.45789063 44.07539062 43.8125 44.8125 C44.14894531 45.52019531 44.48539062 46.22789063 44.83203125 46.95703125 C45.91413325 49.05757461 45.91413325 49.05757461 47.63671875 50.63671875 C49 52 49 52 49 54 C49.66 54 50.32 54 51 54 C62.84167735 66.46873154 70.68038216 79.2997295 70.3046875 96.76953125 C69.90787033 100.97681075 68.92800448 104.83413397 67.65625 108.85546875 C66.90246108 110.94496086 66.90246108 110.94496086 67 113 C68.65 112.01 70.3 111.02 72 110 C71.20225555 122.49799642 62.1425122 131.36283181 53.375 139.5 C45.49367328 146.15084291 36.48177377 151.50539143 27.69482422 156.85766602 C14.7806736 164.76487949 6.07135314 172.13239931 1.625 187.25 C1.41875 188.1575 1.2125 189.065 1 190 C0.34 189.67 -0.32 189.34 -1 189 C-1.421875 187.28515625 -1.421875 187.28515625 -1.75 185.0625 C-4.09121578 173.80321801 -11.68922736 166.21319447 -20.98950195 160.00415039 C-24.26268906 157.98392738 -27.55909732 156.01179077 -30.875 154.0625 C-47.33004455 144.37911813 -64.46504653 132.85082731 -71 114 C-70.625 111.6875 -70.625 111.6875 -70 110 C-68.68 110.99 -67.36 111.98 -66 113 C-66.2165625 112.21238281 -66.433125 111.42476563 -66.65625 110.61328125 C-70.25692499 96.52730731 -70.29016366 84.1089266 -63.421875 70.984375 C-60.39041047 65.98655511 -57.08760513 61.80835663 -52.8359375 57.81640625 C-47.88704342 52.92015998 -43.31979885 47.61790332 -41 41 C-40.34 41 -39.68 41 -39 41 C-38.34 42.65 -37.68 44.3 -37 46 C-35.948125 44.93072266 -35.948125 44.93072266 -34.875 43.83984375 C-26.27570559 35.14317587 -26.27570559 35.14317587 -21.75 31.25 C-11.47269639 22.3750983 -4.52324696 12.95165745 0 0 Z M0 21 C-0.47566406 21.85658203 -0.47566406 21.85658203 -0.9609375 22.73046875 C-3.90245043 27.8415506 -7.11665204 32.60805438 -10.75 37.25 C-29.70964729 60.302036 -29.70964729 60.302036 -36.3515625 88.453125 C-35.12825644 97.31529778 -31.58773286 104.17688929 -24.75 109.875 C-20.79482568 111.49302586 -17.21144386 111.70953674 -13 111 C-10.12970131 109.20606332 -8.50868362 108.01736724 -7 105 C-6.29842117 97.96120908 -6.56935794 93.53830258 -11 88 C-11 87.01 -11 86.02 -11 85 C-13.43750025 82.31232422 -13.43750025 82.31232422 -16 80 C-15.34 80.33 -14.68 80.66 -14 81 C-12.40178958 81.04896923 -10.80146483 81.03673333 -9.203125 80.9921875 C-8.2440625 80.97542969 -7.285 80.95867187 -6.296875 80.94140625 C-4.28105592 80.89747173 -2.26539422 80.84551311 -0.25 80.78515625 C6.95482161 80.67920299 11.31840707 81.50124295 16.75 86.5625 C17.4925 87.366875 18.235 88.17125 19 89 C19.99 89.99 19.99 89.99 21 91 C21 91.99 21 92.98 21 94 C20.01 94.495 20.01 94.495 19 95 C19 94.34 19 93.68 19 93 C15.0645403 92.54238841 13.42755191 92.70257258 10.125 95 C7.74359284 98.36198658 7.29380985 100.05097211 7.58984375 104.06640625 C8.28930181 107.36385138 9.41138903 108.86439595 12 111 C16.65240847 112.3181824 19.67042551 112.47404154 24.125 110.5625 C30.26688206 107.02699618 33.66166328 101.68192098 35.875 95.0625 C38.87016706 83.26118309 35.97590125 72.68036763 29.85229492 62.29589844 C25.08593853 54.5931176 19.62333379 47.47886041 13.98974609 40.39575195 C10.04577962 35.42356433 6.4974209 30.41837306 3.234375 24.96875 C2.02343912 22.87445894 2.02343912 22.87445894 0 21 Z " fill="#720808" transform="translate(100,5)"/>
<path d="M0 0 C0.33 0 0.66 0 1 0 C1.82788246 7.31296169 -1.1494032 13.26617008 -3.875 19.9375 C-10.35772103 36.0171904 -14.62136409 52.11786957 -8 69 C-4.18054771 76.50754775 0.84449129 82.32622675 7 88 C8.0045146 88.99546492 9.00615367 89.99388396 10 91 C-4.88583944 90.42414548 -16.13886675 85.11306196 -26.6875 74.7109375 C-28.142512 72.81422543 -28.59197207 71.33595991 -29 69 C-27.68 69.66 -26.36 70.32 -25 71 C-25.2165625 70.21238281 -25.433125 69.42476563 -25.65625 68.61328125 C-29.25692499 54.52730731 -29.29016366 42.1089266 -22.421875 28.984375 C-19.39123174 23.98790909 -16.09173059 19.80650784 -11.8359375 15.8203125 C-7.20560228 11.22938439 -2.70360774 5.96989526 0 0 Z " fill="#600909" transform="translate(59,47)"/>
<path d="M0 0 C0.66 0 1.32 0 2 0 C2.185625 1.0725 2.37125 2.145 2.5625 3.25 C7.0470779 20.32129319 23.2122048 34.13389933 37 44.1875 C40.22226122 48.71880484 39.38630863 53.61743308 39 59 C33.65661214 53.72474277 28.60727211 48.19837832 23.53564453 42.66357422 C22.12918093 41.13994258 20.70415192 39.6335031 19.27734375 38.12890625 C4 21.85983385 4 21.85983385 4 15 C3.195625 14.731875 2.39125 14.46375 1.5625 14.1875 C0.716875 13.795625 -0.12875 13.40375 -1 13 C-1.33 12.01 -1.66 11.02 -2 10 C-2.33 9.34 -2.66 8.68 -3 8 C-2.44140625 6.0546875 -2.44140625 6.0546875 -1.5625 3.875 C-1.27503906 3.15054687 -0.98757812 2.42609375 -0.69140625 1.6796875 C-0.46324219 1.12539062 -0.23507813 0.57109375 0 0 Z " fill="#A40505" transform="translate(100,5)"/>
<path d="M0 0 C0.66 0.33 1.32 0.66 2 1 C-3.21822476 8.47898153 -8.81919717 15.30413026 -15 22 C-16.19280953 23.34949214 -17.38066337 24.70338787 -18.5625 26.0625 C-21.09523568 28.96631091 -23.63519819 31.86335607 -26.1875 34.75 C-27.13689453 35.82507812 -27.13689453 35.82507812 -28.10546875 36.921875 C-30.01163588 39.01276349 -31.98400256 41.01529298 -34 43 C-33.8645319 35.41378645 -31.28680173 32.22024128 -26 27 C-25.15953125 26.15824219 -24.3190625 25.31648438 -23.453125 24.44921875 C-21.75587044 22.75447493 -20.04953066 21.06875508 -18.33203125 19.39453125 C-14.60088038 15.56338304 -11.7242802 11.58174398 -9 7 C-8.34 6.34 -7.68 5.68 -7 5 C-6.01 5 -5.02 5 -4 5 C-4 4.34 -4 3.68 -4 3 C-2 1.375 -2 1.375 0 0 Z " fill="#5E0A0A" transform="translate(96,21)"/>
<path d="M0 0 C0.66 0 1.32 0 2 0 C4.39288069 6.70006592 4.39288069 6.70006592 3.41796875 9.92578125 C2.74048789 11.22945956 2.02825676 12.51545183 1.2890625 13.78515625 C-0.21633109 16.37169615 -1.45009518 19.0255385 -2.6875 21.75 C-3.10386719 22.65234375 -3.52023438 23.5546875 -3.94921875 24.484375 C-4.86539762 26.6777549 -5.46751032 28.69408818 -6 31 C-6.48911245 32.4620209 -6.98957311 33.92028336 -7.5 35.375 C-8.44865622 38.15222546 -9.09330305 40.58055232 -9.5625 43.5 C-9.706875 44.325 -9.85125 45.15 -10 46 C-10.99 46.495 -10.99 46.495 -12 47 C-11.78057657 38.34274828 -9.11070327 31.01006091 -6 23 C-5.5359375 21.77410156 -5.071875 20.54820313 -4.59375 19.28515625 C-1.26843318 10.53686636 -1.26843318 10.53686636 0 8 C0.0689472 6.62657169 0.08467708 5.24997898 0.0625 3.875 C0.041875 2.59625 0.02125 1.3175 0 0 Z " fill="#B60404" transform="translate(59,46)"/>
<path d="M0 0 C0.33 0 0.66 0 1 0 C1 7.59 1 15.18 1 23 C1.99 23 2.98 23 4 23 C3.55037804 24.96035175 3.09001752 26.91824309 2.625 28.875 C2.36976562 29.96554688 2.11453125 31.05609375 1.8515625 32.1796875 C1 35 1 35 -1 37 C-2 36 -2 36 -2.125 33 C-2 30 -2 30 -1 29 C-0.95100158 27.33405374 -0.96377667 25.66627298 -1 24 C-1.07754346 15.97425174 -0.53104565 8.00361661 0 0 Z " fill="#9F0606" transform="translate(101,158)"/>
<path d="M0 0 C2 1 2 1 2.625 2.625 C3.30864538 6.95475405 3.85958247 10.60317848 1.5 14.4375 C1.005 14.953125 0.51 15.46875 0 16 C0 14.35 0 12.7 0 11 C0.66 11 1.32 11 2 11 C1.34 10.01 0.68 9.02 0 8 C-1.98 8.66 -3.96 9.32 -6 10 C-6 10.66 -6 11.32 -6 12 C-6.66 12 -7.32 12 -8 12 C-2.94736842 1.47368421 -2.94736842 1.47368421 0 0 Z " fill="#890707" transform="translate(98,14)"/>
<path d="M0 0 C0.99 1.485 0.99 1.485 2 3 C6.40458764 8.58311244 11.13892019 12.98097384 17 17 C16.34 17.33 15.68 17.66 15 18 C14.030625 17.505 13.06125 17.01 12.0625 16.5 C9.06586643 14.58844049 9.06586643 14.58844049 6 16 C4.9901527 14.08850332 3.99245505 12.17058431 3 10.25 C2.443125 9.18265625 1.88625 8.1153125 1.3125 7.015625 C0 4 0 4 0 0 Z " fill="#C30303" transform="translate(29,115)"/>
<path d="M0 0 C1.0326802 2.78823655 1.04509293 3.8677274 0.0625 6.75 C-0.288125 7.4925 -0.63875 8.235 -1 9 C-1.99 9 -2.98 9 -4 9 C-4.33 8.34 -4.66 7.68 -5 7 C-5.99 6.67 -6.98 6.34 -8 6 C-5.57202689 3.57202689 -2.8700731 1.8717868 0 0 Z " fill="#A90505" transform="translate(171,115)"/>
<path d="M0 0 C0.99 0.66 1.98 1.32 3 2 C2.54625 2.78375 2.0925 3.5675 1.625 4.375 C-0.11377683 8.25380986 -0.81777294 11.75323902 -1.47265625 15.92578125 C-1.73369141 16.95251953 -1.73369141 16.95251953 -2 18 C-2.66 18.33 -3.32 18.66 -4 19 C-3.59060025 12.23784552 -2.43046191 6.32837252 0 0 Z " fill="#A60505" transform="translate(51,74)"/>
<path d="M0 0 C0.61875 0.350625 1.2375 0.70125 1.875 1.0625 C2.57625 1.371875 3.2775 1.68125 4 2 C4.66 1.67 5.32 1.34 6 1 C6.66 2.98 7.32 4.96 8 7 C4.84859577 6.65930765 3.39218439 6.41923159 1.1875 4.0625 C0 2 0 2 0 0 Z " fill="#890707" transform="translate(30,116)"/>
<path d="M0 0 C4.61513112 1.31860889 8.09897612 3.21355437 12 6 C11.01 6.495 11.01 6.495 10 7 C9.030625 6.505 8.06125 6.01 7.0625 5.5 C4.06586643 3.58844049 4.06586643 3.58844049 1 5 C0.67 3.35 0.34 1.7 0 0 Z " fill="#A70505" transform="translate(34,126)"/>
<path d="M0 0 C0.66 0 1.32 0 2 0 C0.515 6.435 0.515 6.435 -1 13 C-1.33 13 -1.66 13 -2 13 C-2.05447047 11.58376784 -2.09300508 10.16691809 -2.125 8.75 C-2.14820313 7.96109375 -2.17140625 7.1721875 -2.1953125 6.359375 C-1.9828378 3.79268059 -1.28654105 2.2083933 0 0 Z " fill="#BF0303" transform="translate(66,73)"/>
<path d="M0 0 C0.66 0 1.32 0 2 0 C5 5.75 5 5.75 5 8 C4.34 8 3.68 8 3 8 C2.67 8.66 2.34 9.32 2 10 C1.34 6.7 0.68 3.4 0 0 Z " fill="#C40303" transform="translate(140,46)"/>
<path d="M0 0 C3.67230705 3.07999946 4.56802365 5.2482602 5 10 C2.9754262 8.06745228 1.57894208 6.36841312 0 4 C0 2.68 0 1.36 0 0 Z " fill="#900707" transform="translate(127,61)"/>
<path d="M0 0 C-0.33 1.32 -0.66 2.64 -1 4 C-1.66 4 -2.32 4 -3 4 C-3 3.34 -3 2.68 -3 2 C-4.98 2 -6.96 2 -9 2 C-9 1.67 -9 1.34 -9 1 C-2.25 -1.125 -2.25 -1.125 0 0 Z " fill="#BA0404" transform="translate(122,96)"/>
</svg>
